<svg width="192" height="192" viewBox="0 0 192 192" xmlns="http://www.w3.org/2000/svg" role="img" aria-labelledby="title desc">
  <title id="title">SubGhost Logo</title>
  <desc id="desc">Minimal ghost-shaped icon for SubGhost subscriptions app</desc>
  <defs>
    <linearGradient id="ghostGradient" x1="0" y1="0" x2="1" y2="1">
      <stop offset="0%" stop-color="#4f46e5" />
      <stop offset="100%" stop-color="#14b8a6" />
    </linearGradient>
  </defs>
  <rect width="192" height="192" rx="40" fill="#020617" />
  <path
    d="M96 32c-26.5 0-48 21.5-48 48v52c0 9.9 8.7 17.1 18.4 15.4l14.9-2.6a8 8 0 0 1 4.5.5l10.6 4.8a8 8 0 0 0 6.7 0l10.6-4.8a8 8 0 0 1 4.5-.5l14.9 2.6C135.3 149.1 144 141.9 144 132V80c0-26.5-21.5-48-48-48Z"
    fill="url(#ghostGradient)"
  />
  <circle cx="76" cy="86" r="9" fill="#020617" />
  <circle cx="116" cy="86" r="9" fill="#020617" />
  <path
    d="M80 116c4.5 6.5 10.4 10 16 10s11.5-3.5 16-10"
    fill="none"
    stroke="#020617"
    stroke-width="5"
    stroke-linecap="round"
  />
  <circle cx="40" cy="44" r="6" fill="#22c55e" />
  <circle cx="58" cy="32" r="4" fill="#eab308" />
  <circle cx="152" cy="52" r="5" fill="#38bdf8" />
</svg>
